<svg version="1.0"
    xmlns="http://www.w3.org/2000/svg" width="500" height="500" viewBox="0 0 500 500">
    <style>
    g {
      fill: #000000;
    }
    @media (prefers-color-scheme: dark) {
      g {
        fill: #ffffff;
      }
    }
    </style>
    <g transform="translate(0.000000,500.000000) scale(0.077640,-0.077640)" stroke="none">
        <path d="M5945 5889 c-327 -66 -779 -137 -1115 -174 -80 -9 -161 -18 -180 -20
-43 -5 -363 -32 -480 -40 -254 -17 -385 -22 -770 -31 -146 -4 -267 -10 -270
-14 -4 -6 -5 -1194 -1 -1234 1 -8 499 -1 686 9 44 2 134 7 200 10 66 3 143 8
170 10 28 2 86 7 130 10 44 3 103 8 130 10 108 10 362 36 395 40 19 2 109 14
200 25 302 38 697 104 1047 176 l81 17 4 16 c2 9 3 288 3 621 l-1 605 -19 2
c-11 0 -105 -16 -210 -38z"/>
        <path d="M1249 5743 c-1 -24 -1 -402 0 -429 l1 -20 263 -32 c144 -17 292 -34
330 -38 l67 -6 0 234 0 235 -122 12 c-68 7 -208 24 -313 37 -228 29 -225 28
-226 7z"/>
        <path d="M2200 5427 l0 -235 118 -7 c64 -4 128 -8 142 -10 14 -2 109 -7 213
-10 l187 -7 0 234 0 234 -257 12 c-142 7 -291 15 -330 19 l-73 6 0 -236z"/>
        <path d="M290 4917 l0 -233 113 -23 c97 -19 536 -101 544 -101 2 0 3 106 3
235 0 129 -2 235 -5 235 -13 0 -507 92 -562 105 -35 8 -71 15 -79 15 l-14 0 0
-233z"/>
        <path d="M2200 4646 l0 -234 98 -6 c53 -4 113 -9 132 -11 19 -2 124 -7 233
-11 l197 -7 0 235 0 235 -197 7 c-109 4 -211 9 -228 11 -16 2 -76 6 -132 10
l-103 6 0 -235z"/>
        <path d="M6119 4036 c-8 -8 -468 -94 -699 -130 -479 -75 -863 -116 -1410 -151
-122 -7 -369 -15 -625 -20 -132 -3 -244 -5 -250 -5 l-10 0 2 -612 c1 -337 2
-619 2 -627 l1 -13 293 6 c160 3 333 8 382 11 50 2 144 7 210 10 66 3 138 8
160 10 22 3 85 7 140 10 55 4 114 8 130 10 17 2 62 7 100 10 75 7 318 32 375
40 19 2 89 11 155 20 295 38 494 71 858 141 l237 46 1 17 c1 9 2 289 3 624 l1
607 -26 0 c-14 0 -28 -2 -30 -4z"/>
        <path d="M1249 3868 c0 -2 -1 -106 -2 -231 l-2 -228 20 -4 c23 -5 301 -41 385
-50 30 -3 71 -8 90 -10 19 -3 65 -7 103 -11 l67 -6 0 234 0 235 -167 17 c-93
10 -231 26 -307 37 -130 18 -185 23 -187 17z"/>
        <path d="M2200 3536 l0 -236 48 -1 c26 0 56 -2 67 -4 26 -4 188 -13 388 -21
l157 -7 0 237 0 236 -92 1 c-51 0 -102 2 -113 4 -11 1 -83 6 -160 9 -77 4
-175 9 -217 13 l-78 6 0 -237z"/>
        <path d="M290 3027 l0 -233 191 -38 c239 -47 462 -86 467 -82 4 5 4 458 -1
462 -2 3 -69 16 -148 29 -79 14 -221 41 -315 60 -93 19 -176 35 -182 35 l-12
0 0 -233z"/>
        <path d="M2200 2756 l0 -236 38 -1 c20 0 46 -2 57 -4 30 -5 208 -14 397 -22
l168 -6 0 237 0 236 -107 1 c-60 0 -115 2 -123 3 -8 2 -80 6 -160 10 -80 4
-173 9 -207 13 l-63 5 0 -236z"/>
        <path d="M5990 2119 c-490 -105 -1218 -203 -1760 -239 -91 -5 -187 -12 -215
-15 -66 -6 -563 -19 -742 -20 l-143 0 -1 -12 c-1 -17 -1 -1220 0 -1234 l1 -11
288 6 c158 4 330 8 382 11 272 13 330 16 380 20 30 2 89 7 130 10 206 16 277
23 520 50 379 43 740 99 1132 177 l206 41 4 16 c2 9 3 288 3 621 l-1 605 -24
1 c-14 1 -86 -11 -160 -27z"/>
        <path d="M1249 1957 c-4 -190 0 -430 7 -436 5 -5 108 -21 229 -36 276 -33 276
-33 358 -41 l67 -6 0 235 0 235 -77 7 c-110 9 -555 64 -570 70 l-13 4 -1 -32z"/>
        <path d="M2200 1646 l0 -236 48 -1 c26 0 54 -2 62 -3 18 -4 189 -13 398 -22
l152 -7 0 237 0 236 -92 1 c-51 0 -102 2 -113 4 -11 1 -83 6 -160 9 -77 4
-175 9 -217 13 l-78 6 0 -237z"/>
        <path d="M290 1137 l0 -233 218 -42 c262 -51 436 -82 440 -77 4 4 3 458 -1
462 -2 1 -115 23 -251 48 -137 25 -277 52 -313 60 -35 8 -71 15 -79 15 l-14 0
0 -233z"/>
        <path d="M2200 866 l0 -236 38 -1 c20 0 46 -2 57 -4 28 -4 192 -13 393 -21
l172 -7 0 235 0 235 -197 7 c-109 4 -214 9 -233 11 -19 2 -79 7 -132 10 l-98
6 0 -235z"/>
    </g>
</svg>
