<?xml version="1.0" standalone="no"?>
<!DOCTYPE svg PUBLIC "-//W3C//DTD SVG 20010904//EN"
 "http://www.w3.org/TR/2001/REC-SVG-20010904/DTD/svg10.dtd">
<svg version="1.0" xmlns="http://www.w3.org/2000/svg"
 width="589.000000pt" height="589.000000pt" viewBox="0 0 589.000000 589.000000"
 preserveAspectRatio="xMidYMid meet">
<metadata>
Created by potrace 1.11, written by Peter Selinger 2001-2013
</metadata>
<g transform="translate(0.000000,589.000000) scale(0.100000,-0.100000)"
fill="#000000" stroke="none">
<path d="M5690 5579 c-158 -33 -398 -77 -520 -95 -19 -3 -60 -9 -90 -14 -107
-18 -450 -64 -560 -75 -30 -3 -71 -7 -90 -10 -19 -2 -61 -7 -92 -10 -32 -3
-82 -7 -110 -10 -104 -10 -295 -24 -393 -30 -55 -4 -127 -8 -160 -10 -105 -7
-434 -16 -637 -18 -109 -1 -199 -4 -200 -7 0 -3 -2 -286 -3 -629 l-2 -624 341
8 c188 4 359 8 381 10 22 1 105 6 185 10 80 3 161 8 180 10 19 2 80 6 135 10
55 4 111 8 125 10 14 2 59 6 100 9 41 4 86 9 100 11 14 2 54 7 90 10 54 5 232
27 415 51 211 28 652 105 946 165 l56 11 0 629 c0 346 -3 628 -6 628 -3 -1
-89 -19 -191 -40z"/>
<path d="M954 5215 c1 -128 3 -235 6 -238 3 -3 30 -8 60 -11 30 -4 66 -8 80
-11 22 -4 88 -12 245 -30 124 -15 223 -25 248 -25 l27 0 0 235 0 235 -22 1
c-13 1 -32 3 -43 4 -11 1 -51 5 -90 9 -38 4 -81 8 -95 11 -14 2 -45 6 -70 9
-97 11 -296 36 -321 40 l-25 5 0 -234z"/>
<path d="M1910 5106 l0 -236 38 -1 c20 -1 48 -3 62 -4 58 -6 227 -16 388 -21
l172 -7 1 34 c2 129 0 431 -3 434 -2 3 -74 7 -159 10 -85 3 -174 8 -199 10
-25 2 -102 7 -172 11 l-128 7 0 -237z"/>
<path d="M0 4599 c0 -132 4 -239 8 -239 4 0 75 -14 157 -30 142 -29 476 -90
493 -90 4 0 7 104 7 231 0 196 -2 233 -15 240 -8 4 -85 19 -171 34 -86 14
-228 41 -317 59 l-162 33 0 -238z"/>
<path d="M1910 4326 l0 -236 23 -2 c12 0 27 -2 32 -3 6 -1 80 -5 165 -9 85 -5
169 -10 185 -11 28 -3 227 -7 250 -6 9 1 12 457 3 466 -1 2 -75 6 -163 10 -88
3 -185 8 -215 10 -30 2 -106 7 -167 10 l-113 7 0 -236z"/>
<path d="M5715 3694 c-88 -18 -225 -45 -305 -59 -80 -14 -156 -27 -170 -30
-139 -24 -559 -83 -720 -100 -30 -3 -71 -8 -90 -10 -120 -15 -383 -37 -610
-50 -58 -4 -123 -8 -145 -10 -44 -4 -518 -17 -715 -19 l-125 -1 -1 -629 -1
-629 341 7 c188 4 359 9 381 11 22 1 107 6 189 10 82 4 156 8 165 10 9 1 66 6
126 10 61 3 124 8 140 10 17 2 62 7 100 10 365 29 1035 129 1455 216 79 17
147 32 150 34 8 5 9 1255 1 1254 -3 -1 -78 -16 -166 -35z"/>
<path d="M954 3323 l1 -238 85 -12 c47 -6 112 -15 145 -19 33 -3 67 -7 75 -9
8 -2 49 -6 90 -10 41 -4 77 -8 80 -10 3 -2 47 -6 98 -10 l92 -7 0 236 0 236
-22 1 c-13 0 -30 2 -38 4 -8 1 -46 5 -85 9 -38 4 -81 9 -95 11 -14 2 -52 7
-85 10 -75 7 -281 34 -316 41 l-25 5 0 -238z"/>
<path d="M1910 3216 l0 -236 33 -1 c17 0 46 -2 62 -4 52 -6 203 -14 388 -21
l177 -7 1 59 c2 151 0 406 -3 409 -2 2 -68 6 -148 9 -80 4 -172 9 -205 11 -33
2 -115 7 -182 11 l-123 6 0 -236z"/>
<path d="M0 2710 l0 -238 238 -46 c312 -60 414 -77 421 -70 3 3 6 109 7 234
l1 229 -26 5 c-14 3 -136 26 -271 50 -135 25 -273 52 -307 60 l-63 14 0 -238z"/>
<path d="M1910 2436 l0 -236 23 -1 c12 0 36 -2 52 -4 41 -4 202 -14 370 -21
77 -3 157 -7 178 -8 35 -2 37 -1 38 28 2 109 0 438 -3 441 -2 1 -77 6 -168 10
-91 4 -185 8 -210 10 -25 2 -98 6 -162 10 l-118 7 0 -236z"/>
<path d="M5690 1799 c-102 -21 -241 -47 -310 -59 -69 -12 -136 -23 -150 -26
-133 -23 -293 -47 -430 -64 -91 -11 -176 -23 -190 -25 -14 -2 -59 -7 -100 -11
-41 -4 -77 -8 -80 -9 -3 -1 -48 -5 -100 -10 -52 -5 -97 -9 -100 -10 -3 -1 -54
-5 -115 -9 -60 -4 -121 -9 -135 -11 -14 -2 -74 -6 -135 -9 -60 -4 -146 -8
-190 -11 -156 -9 -373 -15 -596 -17 l-226 -1 1 -630 0 -629 340 7 c188 4 358
8 380 10 21 2 106 6 190 10 83 3 165 8 181 10 17 2 71 7 120 10 50 3 108 8
130 10 22 3 65 7 95 10 30 2 98 9 150 15 52 6 120 13 150 16 30 3 66 7 80 9
14 2 43 7 65 9 271 33 611 88 936 152 l236 47 0 624 c0 343 -3 625 -6 627 -3
1 -89 -15 -191 -35z"/>
<path d="M954 1433 c1 -148 5 -237 11 -239 17 -5 494 -63 578 -70 l77 -7 0
237 c0 130 -3 236 -7 236 -42 1 -548 61 -629 75 l-30 5 0 -237z"/>
<path d="M1910 1326 l0 -236 28 -1 c15 0 45 -2 67 -4 91 -8 220 -15 388 -21
l177 -7 1 44 c2 170 1 421 -3 424 -2 3 -69 7 -149 10 -79 3 -169 7 -199 10
-30 3 -112 8 -182 11 l-128 6 0 -236z"/>
<path d="M0 821 l0 -238 238 -46 c130 -26 253 -49 272 -52 19 -3 59 -10 89
-15 30 -6 57 -10 61 -10 3 0 6 106 6 235 0 230 0 236 -20 240 -12 2 -124 22
-249 45 -126 23 -267 50 -313 60 l-84 18 0 -237z"/>
<path d="M1910 546 l0 -236 28 -1 c15 -1 38 -3 52 -4 59 -7 208 -15 388 -21
l192 -7 0 237 0 236 -37 0 c-51 1 -240 9 -333 15 -41 2 -123 7 -182 11 l-108
6 0 -236z"/>
</g>
</svg>
