<svg xmlns:rdf="http://www.w3.org/1999/02/22-rdf-syntax-ns#" xmlns:svg="http://www.w3.org/2000/svg" xmlns="http://www.w3.org/2000/svg" version="1.1" x="0px" y="0px" viewBox="0 0 100 100">
    <g transform="translate(0,-952.36218)">
        <path shape-rendering="auto" style="opacity:1;color:#000000;fill:#000000;stroke:none;stroke-width:3.33333332999999990;stroke-linecap:round;stroke-linejoin:round;stroke-miterlimit:4;stroke-opacity:1;stroke-dasharray:none;stroke-dashoffset:0;marker:none;visibility:visible;display:inline;overflow:visible;enable-background:accumulate" d="M 50 8 C 26.804041 8 8 26.804041 8 50 C 8 73.195959 26.804041 92 50 92 C 73.195959 92 92 73.195959 92 50 C 92 26.804041 73.195959 8 50 8 z M 50 26 C 55.781921 26 61.13019 28.04402 65.28125 31.46875 C 66.088621 32.13727 66.231023 33.47388 65.5625 34.28125 C 64.893977 35.08862 63.526121 35.19977 62.71875 34.53125 C 59.26475 31.68161 54.847223 30 50 30 C 38.930612 30 30 38.9306 30 50 C 30 61.0694 38.930612 70 50 70 C 60.83867 70 69.607262 61.43585 69.96875 50.6875 L 66.375 54.125 A 2.0005492 2.0005492 0 1 1 63.625 51.21875 L 70.625 44.53125 A 2.0002 2.0002 0 0 1 71.71875 44 A 2.0002 2.0002 0 0 1 73.375 44.53125 L 80.375 51.21875 A 2.0005492 2.0005492 0 1 1 77.625 54.125 L 73.96875 50.65625 C 73.614436 63.580875 63.008381 74 50 74 C 36.768855 74 26 63.2311 26 50 C 26 36.76884 36.768855 26 50 26 z " transform="translate(0,952.36218)" />
    </g>
</svg>